<?xml version="1.0" encoding="utf-8"?>
<!-- Generator: Adobe Illustrator 27.2.0, SVG Export Plug-In . SVG Version: 6.00 Build 0)  -->
<svg version="1.1" id="Capa_1" xmlns="http://www.w3.org/2000/svg" xmlns:xlink="http://www.w3.org/1999/xlink" x="0px" y="0px"
	 viewBox="0 0 150 50" style="enable-background:new 0 0 150 50;" xml:space="preserve">
<style type="text/css">
	.st0{fill:#FFFFFF;}
</style>
<path class="st0" d="M31.6,13.4l-3.8,11.3l4.1,11.9H28l-3-9.2l-3,9.2h-3.4l4.1-11.9l-3.8-11.3h3.8l2.8,8.5l2.8-8.5
	C28.3,13.4,31.6,13.4,31.6,13.4z"/>
<path class="st0" d="M-15.3,36.6H-19l-0.6-4.2h-4.5l-0.6,4.2H-28l3.7-23.2h5.3L-15.3,36.6z M-23.6,29.2h3.5l-1.8-11.7L-23.6,29.2z"
	/>
<g>
	<path class="st0" d="M125,0H25C11.2,0,0,11.2,0,25l0,0c0,13.8,11.2,25,25,25h100c13.8,0,25-11.2,25-25l0,0C150,11.2,138.8,0,125,0z
		 M25,46.8C13,46.8,3.2,37,3.2,25S13,3.2,25,3.2S46.8,13,46.8,25S37,46.8,25,46.8z M75.1,16.8h-6.3v6.4h5v3.3h-5v6.8h6.3v3.3h-9.9
		V13.5h9.9V16.8z M88.8,36.5h-3.7l-4.5-16.7v16.7h-3.3v-23h4.6l3.7,13.8V13.5h3.2C88.8,13.5,88.8,36.5,88.8,36.5z M101.6,16.8h-3.8
		v19.8h-3.6V16.8h-3.8v-3.3h11.2C101.6,13.5,101.6,16.8,101.6,16.8z M113.1,16.8h-6.3v6.4h5v3.3h-5v6.8h6.3v3.3h-9.9V13.5h9.9V16.8z
		 M122.9,36.5c-0.2-0.6-0.3-1-0.3-2.8v-3.6c0-2.1-0.7-2.9-2.4-2.9h-1.3v9.4h-3.6V13.5h5.5c3.8,0,5.4,1.7,5.4,5.3v1.8
		c0,2.4-0.8,3.9-2.4,4.7c1.8,0.8,2.4,2.5,2.4,4.9v3.6c0,1.1,0,1.9,0.4,2.8L122.9,36.5L122.9,36.5z"/>
	<path class="st0" d="M120.7,16.8H119v7.1h1.4c1.4,0,2.2-0.6,2.2-2.4v-2.3C122.5,17.5,122,16.8,120.7,16.8z"/>
</g>
<g>
	<path class="st0" d="M-38,18.7v0.8c0,2.4-0.7,3.9-2.4,4.7c2,0.8,2.7,2.5,2.7,5v1.9c0,3.6-1.9,5.5-5.6,5.5H-49V13.4h5.5
		C-39.7,13.4-38,15.1-38,18.7z M-45.3,16.7v6.2h1.4c1.4,0,2.2-0.6,2.2-2.5v-1.3c0-1.7-0.6-2.4-1.9-2.4
		C-43.6,16.7-45.3,16.7-45.3,16.7z M-45.3,26.2v7.2h2.1c1.2,0,1.9-0.6,1.9-2.3v-2c0-2.2-0.7-2.8-2.4-2.8h-1.6V26.2z"/>
</g>
</svg>
