<?xml version="1.0" encoding="utf-8"?>
<!-- Generator: Adobe Illustrator 27.2.0, SVG Export Plug-In . SVG Version: 6.00 Build 0)  -->
<svg version="1.1" id="Capa_1" xmlns="http://www.w3.org/2000/svg" xmlns:xlink="http://www.w3.org/1999/xlink" x="0px" y="0px"
	 viewBox="0 0 123 1080" style="enable-background:new 0 0 123 1080;" xml:space="preserve">
<style type="text/css">
	.st0{fill:#010202;}
	.st1{fill:#262626;}
	.st2{fill-rule:evenodd;clip-rule:evenodd;fill:#545457;}
	.st3{fill-rule:evenodd;clip-rule:evenodd;fill:#2C2C2E;}
	.st4{fill-rule:evenodd;clip-rule:evenodd;fill:#1F1F20;}
	.st5{fill:#FFFFFF;}
	.st6{fill:#545558;}
	.st7{fill:none;}
	.st8{fill:#818181;}
</style>
<rect class="st0" width="123" height="1080"/>
<g>
	<rect x="122" class="st1" width="1" height="1080"/>
</g>
<g>
	<rect y="122" class="st1" width="122.5" height="1"/>
</g>
<path class="st2" d="M69.8,1014.1c-0.3-0.3-0.9-0.3-1.2,0l-6,5.2l-6-5.2c-0.3-0.3-0.9-0.3-1.2,0c-0.2,0.1-0.3,0.3-0.3,0.5
	s0.1,0.4,0.3,0.5l6.6,5.7c0.2,0.1,0.4,0.2,0.6,0.2c0.2,0,0.5-0.1,0.6-0.2l6.6-5.7C70.1,1014.9,70.1,1014.4,69.8,1014.1z"/>
<path class="st3" d="M69.8,1007.1c-0.3-0.3-0.9-0.3-1.2,0l-6,5.2l-6-5.2c-0.3-0.3-0.9-0.3-1.2,0c-0.2,0.1-0.3,0.3-0.3,0.5
	s0.1,0.4,0.3,0.5l6.6,5.7c0.2,0.1,0.4,0.2,0.6,0.2c0.2,0,0.5-0.1,0.6-0.2l6.6-5.7C70.1,1007.9,70.1,1007.4,69.8,1007.1z"/>
<path class="st4" d="M69.8,1000.2c-0.3-0.3-0.9-0.3-1.2,0l-6,5.2l-6-5.2c-0.3-0.3-0.9-0.3-1.2,0c-0.2,0.1-0.3,0.3-0.3,0.5
	s0.1,0.4,0.3,0.5l6.6,5.7c0.2,0.1,0.4,0.2,0.6,0.2c0.2,0,0.5-0.1,0.6-0.2l6.6-5.7C70.1,1001,70.1,1000.5,69.8,1000.2z"/>
<g>
	<g>
		<image style="overflow:visible;" width="157" height="157" xlink:href="7D9EBEF5.png"  transform="matrix(1 0 0 1 -17 105)">
		</image>
	</g>
	<circle class="st5" cx="61.5" cy="183.8" r="6"/>
	<path class="st6" d="M61.5,219.6c2.2,0,4,1.8,4,4c0,2.2-1.8,4-4,4s-4-1.8-4-4C57.5,221.3,59.3,219.6,61.5,219.6 M61.5,217.6
		c-3.3,0-6,2.7-6,6c0,3.3,2.7,6,6,6c3.3,0,6-2.7,6-6C67.5,220.2,64.8,217.6,61.5,217.6L61.5,217.6z"/>
	<path class="st6" d="M61.5,259.3c2.2,0,4,1.8,4,4c0,2.2-1.8,4-4,4s-4-1.8-4-4C57.5,261,59.3,259.3,61.5,259.3 M61.5,257.3
		c-3.3,0-6,2.7-6,6c0,3.3,2.7,6,6,6c3.3,0,6-2.7,6-6C67.5,259.9,64.8,257.3,61.5,257.3L61.5,257.3z"/>
	<path class="st6" d="M61.5,299c2.2,0,4,1.8,4,4c0,2.2-1.8,4-4,4s-4-1.8-4-4C57.5,300.7,59.3,299,61.5,299 M61.5,297
		c-3.3,0-6,2.7-6,6s2.7,6,6,6c3.3,0,6-2.7,6-6S64.8,297,61.5,297L61.5,297z"/>
	<path class="st6" d="M61.5,338.7c2.2,0,4,1.8,4,4c0,2.2-1.8,4-4,4s-4-1.8-4-4C57.5,340.4,59.3,338.7,61.5,338.7 M61.5,336.7
		c-3.3,0-6,2.7-6,6s2.7,6,6,6c3.3,0,6-2.7,6-6S64.8,336.7,61.5,336.7L61.5,336.7z"/>
	<path class="st6" d="M61.5,378.4c2.2,0,4,1.8,4,4s-1.8,4-4,4s-4-1.8-4-4S59.3,378.4,61.5,378.4 M61.5,376.4c-3.3,0-6,2.7-6,6
		s2.7,6,6,6c3.3,0,6-2.7,6-6S64.8,376.4,61.5,376.4L61.5,376.4z"/>
	<path class="st6" d="M61.5,418.1c2.2,0,4,1.8,4,4s-1.8,4-4,4s-4-1.8-4-4S59.3,418.1,61.5,418.1 M61.5,416.1c-3.3,0-6,2.7-6,6
		s2.7,6,6,6c3.3,0,6-2.7,6-6S64.8,416.1,61.5,416.1L61.5,416.1z"/>
	<path class="st6" d="M61.5,457.8c2.2,0,4,1.8,4,4s-1.8,4-4,4s-4-1.8-4-4S59.3,457.8,61.5,457.8 M61.5,455.8c-3.3,0-6,2.7-6,6
		s2.7,6,6,6c3.3,0,6-2.7,6-6S64.8,455.8,61.5,455.8L61.5,455.8z"/>
	<path class="st6" d="M61.5,497.5c2.2,0,4,1.8,4,4c0,2.2-1.8,4-4,4s-4-1.8-4-4C57.5,499.2,59.3,497.5,61.5,497.5 M61.5,495.5
		c-3.3,0-6,2.7-6,6s2.7,6,6,6c3.3,0,6-2.7,6-6S64.8,495.5,61.5,495.5L61.5,495.5z"/>
	<path class="st6" d="M61.5,537.2c2.2,0,4,1.8,4,4c0,2.2-1.8,4-4,4s-4-1.8-4-4C57.5,538.9,59.3,537.2,61.5,537.2 M61.5,535.2
		c-3.3,0-6,2.7-6,6s2.7,6,6,6c3.3,0,6-2.7,6-6S64.8,535.2,61.5,535.2L61.5,535.2z"/>
	<path class="st6" d="M61.5,576.9c2.2,0,4,1.8,4,4c0,2.2-1.8,4-4,4s-4-1.8-4-4C57.5,578.6,59.3,576.9,61.5,576.9 M61.5,574.9
		c-3.3,0-6,2.7-6,6s2.7,6,6,6c3.3,0,6-2.7,6-6S64.8,574.9,61.5,574.9L61.5,574.9z"/>
	<path class="st6" d="M61.5,616.6c2.2,0,4,1.8,4,4c0,2.2-1.8,4-4,4s-4-1.8-4-4C57.5,618.3,59.3,616.6,61.5,616.6 M61.5,614.6
		c-3.3,0-6,2.7-6,6s2.7,6,6,6c3.3,0,6-2.7,6-6S64.8,614.6,61.5,614.6L61.5,614.6z"/>
	<path class="st6" d="M61.5,656.3c2.2,0,4,1.8,4,4c0,2.2-1.8,4-4,4s-4-1.8-4-4C57.5,658,59.3,656.3,61.5,656.3 M61.5,654.3
		c-3.3,0-6,2.7-6,6s2.7,6,6,6c3.3,0,6-2.7,6-6S64.8,654.3,61.5,654.3L61.5,654.3z"/>
	<path class="st6" d="M61.5,696c2.2,0,4,1.8,4,4s-1.8,4-4,4s-4-1.8-4-4S59.3,696,61.5,696 M61.5,694c-3.3,0-6,2.7-6,6s2.7,6,6,6
		c3.3,0,6-2.7,6-6S64.8,694,61.5,694L61.5,694z"/>
	<path class="st6" d="M61.5,735.7c2.2,0,4,1.8,4,4s-1.8,4-4,4s-4-1.8-4-4S59.3,735.7,61.5,735.7 M61.5,733.7c-3.3,0-6,2.7-6,6
		s2.7,6,6,6c3.3,0,6-2.7,6-6S64.8,733.7,61.5,733.7L61.5,733.7z"/>
	<path class="st6" d="M61.5,775.4c2.2,0,4,1.8,4,4s-1.8,4-4,4s-4-1.8-4-4S59.3,775.4,61.5,775.4 M61.5,773.4c-3.3,0-6,2.7-6,6
		s2.7,6,6,6c3.3,0,6-2.7,6-6S64.8,773.4,61.5,773.4L61.5,773.4z"/>
	<path class="st6" d="M61.5,815.1c2.2,0,4,1.8,4,4s-1.8,4-4,4s-4-1.8-4-4S59.3,815.1,61.5,815.1 M61.5,813.1c-3.3,0-6,2.7-6,6
		s2.7,6,6,6c3.3,0,6-2.7,6-6S64.8,813.1,61.5,813.1L61.5,813.1z"/>
	<path class="st6" d="M61.5,854.8c2.2,0,4,1.8,4,4c0,2.2-1.8,4-4,4s-4-1.8-4-4C57.5,856.6,59.3,854.8,61.5,854.8 M61.5,852.8
		c-3.3,0-6,2.7-6,6s2.7,6,6,6c3.3,0,6-2.7,6-6S64.8,852.8,61.5,852.8L61.5,852.8z"/>
	<path class="st6" d="M61.5,894.5c2.2,0,4,1.8,4,4c0,2.2-1.8,4-4,4s-4-1.8-4-4C57.5,896.3,59.3,894.5,61.5,894.5 M61.5,892.5
		c-3.3,0-6,2.7-6,6s2.7,6,6,6c3.3,0,6-2.7,6-6S64.8,892.5,61.5,892.5L61.5,892.5z"/>
	<polygon class="st6" points="61.5,932.2 63.4,936.1 67.8,936.7 64.6,939.8 65.4,944.1 61.5,942.1 57.6,944.1 58.4,939.8 
		55.2,936.7 59.6,936.1 	"/>
</g>
<g>
	<path class="st7" d="M68.4,58.6C68.4,58.6,68.4,58.6,68.4,58.6c-0.1,0-0.2,0-0.2,0c-0.1,0-0.1,0-0.2,0c-0.1,0-0.1,0.1-0.2,0.1
		c0,0-0.1,0.1-0.1,0.1c-0.1,0.1-0.1,0.1-0.2,0.2c0,0-0.1,0.1-0.1,0.1c0,0,0,0,0,0c0,0.1-0.1,0.2-0.1,0.4c0,0.1,0,0.3,0.1,0.4
		c0,0,0,0.1,0.1,0.1c0,0,0,0,0,0c0,0.1,0.1,0.2,0.2,0.2c0,0,0.1,0.1,0.1,0.1c0.1,0.1,0.1,0.1,0.2,0.1c0.1,0,0.1,0,0.2,0
		c0.1,0,0.1,0.1,0.2,0.1c0,0,0,0,0,0c0.4,0,0.8-0.2,0.9-0.6c0.1-0.2,0.1-0.3,0.1-0.5C69.5,59,69.1,58.7,68.4,58.6
		C68.4,58.6,68.4,58.6,68.4,58.6z"/>
	<path class="st7" d="M57.1,51c0,0.1,0,0.1,0.1,0.2c0,0,0,0,0,0c0,0,0,0.1,0,0.1c0,0.1,0.1,0.1,0.1,0.2c0,0,0,0.1,0.1,0.1
		c0,0,0.1,0.1,0.1,0.1c0,0,0.1,0,0.1,0.1c0,0,0.1,0.1,0.1,0.1c0,0,0.1,0,0.1,0.1c0,0,0.1,0,0.1,0.1c0,0,0.1,0,0.1,0c0,0,0.1,0,0.1,0
		c0,0,0.1,0,0.1,0c0,0,0.1,0,0.1,0c0,0,0,0,0,0c0.5,0,1.1-0.3,1.3-0.9c0-0.1,0.1-0.3,0.1-0.5c0.1-0.7-0.6-1.3-1.3-1.3c0,0,0,0,0,0
		c0,0-0.1,0-0.1,0c0,0-0.1,0-0.1,0c0,0-0.1,0-0.1,0c0,0-0.1,0-0.1,0c0,0-0.1,0-0.1,0.1c0,0-0.1,0-0.1,0.1c0,0-0.1,0.1-0.1,0.1
		c0,0-0.1,0.1-0.1,0.1c0,0-0.1,0.1-0.1,0.1c0,0-0.1,0.1-0.1,0.1c0,0,0,0.1-0.1,0.1c0,0,0,0.1-0.1,0.1c0,0,0,0.1-0.1,0.1
		c0,0,0,0.1,0,0.1c0,0.1,0,0.1,0,0.2C57,50.7,57.1,50.8,57.1,51C57.1,51,57.1,51,57.1,51z"/>
	<path class="st7" d="M66.5,57.7C66.5,57.7,66.5,57.7,66.5,57.7c0.1,0.2,0.2,0.2,0.2,0.3c0,0,0,0,0,0c0.1,0.1,0.2,0.2,0.3,0.2
		c0,0,0,0,0,0c0.1,0,0.2,0.1,0.3,0.1c0,0,0,0,0,0c0,0,0,0,0,0c0.4,0,0.7-0.2,0.9-0.5c0.1-0.2,0.1-0.3,0.1-0.5c0-0.6-0.4-1.1-1-1.1
		c0,0,0,0,0,0c-0.1,0-0.2,0-0.2,0c-0.1,0-0.1,0-0.2,0c-0.1,0-0.1,0.1-0.2,0.1c-0.1,0-0.1,0.1-0.2,0.1c-0.1,0.1-0.1,0.1-0.1,0.2
		c0,0-0.1,0.1-0.1,0.1c-0.1,0.1-0.1,0.3-0.1,0.4C66.4,57.4,66.4,57.5,66.5,57.7C66.5,57.7,66.5,57.7,66.5,57.7z"/>
	<path class="st7" d="M63.4,51.8c0.7,0.1,1.3,0.1,2,0.3c0,0,0.1,0,0.1,0c0,0,0,0,0,0c0,0,0.1,0,0.1,0c0,0,0,0,0,0c0,0,0-0.1,0.1-0.1
		c0-0.4,0.1-0.9,0.2-1.3c0-0.3,0.1-0.5,0.1-0.8c0-0.1,0-0.2-0.1-0.2c-0.7-0.2-1.5-0.2-2.2-0.3c0,0,0,0,0,0c0,0-0.1,0-0.1,0
		c0,0,0,0,0,0c0,0,0,0.1-0.1,0.2c-0.1,0.7-0.2,1.3-0.3,2.1c0,0.1,0,0.2,0.1,0.2C63.2,51.8,63.3,51.8,63.4,51.8z"/>
	<path class="st7" d="M63.7,45.8C63.7,45.8,63.7,45.8,63.7,45.8C63.7,45.8,63.7,45.8,63.7,45.8c0.1,0,0.1,0,0.2,0
		c0.3-0.1,0.7-0.2,1-0.3c0.1,0,0.1-0.1,0.1-0.1s0-0.1-0.1-0.1c-0.3-0.2-0.5-0.5-0.8-0.7c-0.1,0-0.1-0.1-0.1-0.1c0,0,0,0,0,0
		c0,0,0,0,0,0c0,0,0,0,0,0c0,0,0,0,0,0c0,0,0,0.1,0,0.1c-0.1,0.3-0.1,0.7-0.2,1C63.6,45.7,63.7,45.7,63.7,45.8
		C63.7,45.8,63.7,45.8,63.7,45.8z"/>
	<path class="st7" d="M65.3,60.3c-0.1,0.1-0.1,0.3-0.1,0.5c0,0.1,0,0.3,0.1,0.4c0,0,0,0,0,0c0,0,0,0.1,0.1,0.1
		c0.1,0.1,0.1,0.2,0.2,0.2c0,0,0,0,0,0c0.1,0.1,0.2,0.2,0.3,0.2c0,0,0,0,0,0c0.1,0,0.2,0.1,0.3,0.1c0,0,0,0,0,0c0,0,0,0,0,0
		c0.4,0,0.8-0.2,0.9-0.6c0.1-0.1,0.1-0.3,0.1-0.4c0-0.2,0-0.3-0.1-0.5c0,0,0,0,0,0c0-0.1-0.1-0.2-0.2-0.3c0,0,0,0,0,0
		c-0.1-0.1-0.2-0.1-0.3-0.2c0,0-0.1,0-0.1,0c-0.1,0-0.2-0.1-0.3-0.1c0,0,0,0,0,0c-0.1,0-0.2,0-0.3,0C65.7,59.8,65.4,60,65.3,60.3z"
		/>
	<path class="st7" d="M65.1,59.3C65.1,59.3,65.1,59.3,65.1,59.3c0.1,0,0.1,0,0.2,0c0.1,0,0.1,0,0.2,0c0.1,0,0.1-0.1,0.2-0.1
		c0.1,0,0.1-0.1,0.2-0.1c0.1-0.1,0.1-0.2,0.2-0.3c0-0.1,0.1-0.1,0.1-0.2c0-0.1,0-0.2,0-0.3c0-0.7-0.4-1.1-1-1.1c0,0,0,0,0,0
		c0,0,0,0,0,0c-0.1,0-0.3,0-0.4,0.1c0,0,0,0,0,0c-0.1,0.1-0.2,0.2-0.3,0.3c0,0,0,0,0,0c-0.1,0.1-0.2,0.2-0.2,0.4c0,0,0,0,0,0
		c0,0.1-0.1,0.3-0.1,0.4c0,0.1,0.1,0.3,0.2,0.4C64.4,59,64.7,59.3,65.1,59.3z"/>
	<path class="st7" d="M54.7,60c0.1,0,0.1,0,0.2,0c0.1,0,0.2,0,0.3,0c0.8,0,0.8,0,0.8,0.8c0,0.2-0.1,0.5,0.1,0.7
		c0.1,0.1,0.2,0.2,0.2,0.3c0,0,0,0,0,0c0.1,0.1,0.2,0.1,0.3,0.1c0,0,0,0,0,0c0,0,0.1,0,0.1,0c0.3-0.1,0.5-0.3,0.6-0.7
		c0-0.3,0-0.5,0-0.8c0-0.4,0-0.4,0.4-0.4c0,0,0,0,0,0c0.1,0,0.3,0,0.4,0c0.1,0,0.2,0,0.3,0c0.2,0,0.4-0.1,0.5-0.2
		c0.1-0.1,0.2-0.3,0.2-0.5c0-0.4-0.3-0.7-0.7-0.7c-0.2,0-0.3,0-0.5,0c-0.1,0-0.3,0-0.4,0c-0.1,0-0.1,0-0.1,0c0,0-0.1,0-0.1,0
		c0,0-0.1-0.1,0-0.2c0-0.3,0-0.6,0-0.9c0-0.1,0-0.2-0.1-0.3c0,0,0,0-0.1-0.1c0-0.1-0.1-0.1-0.1-0.1c0,0-0.1,0-0.1-0.1
		c0,0-0.1-0.1-0.1-0.1c0,0-0.1,0-0.1,0c0,0-0.1,0-0.1,0c0,0,0,0-0.1,0c-0.3,0-0.7,0.3-0.6,0.7c0,0.3,0,0.6,0,0.9c0,0.1,0,0.1,0,0.2
		c0,0,0,0-0.1,0c0,0-0.1,0-0.1,0c-0.2,0-0.3,0-0.5,0c-0.2,0-0.3,0-0.5,0c-0.4,0-0.7,0.3-0.7,0.7c0,0.2,0.1,0.4,0.2,0.5
		C54.4,59.9,54.5,60,54.7,60z"/>
	<path class="st8" d="M78.7,73.4c0-0.6-0.1-1.2-0.2-1.7c-0.3-1.2-0.7-2.3-1-3.5c-0.3-1-0.6-1.9-0.9-2.9c-0.3-1.2-0.7-2.4-1-3.5
		c-0.1-0.5-0.4-1-1-1.1c-0.2,0-0.3,0-0.5-0.1v2.7c0.1,0.4,0.2,0.8,0.4,1.2c0.2,0.9,0.5,1.7,0.7,2.6c0.3,0.9,0.5,1.8,0.8,2.6
		c0.1,0.4-0.1,0.8-0.5,0.8c-0.1,0-0.2,0-0.3,0c-7.4,0-14.8,0-22.1,0c-1,0-2,0-3,0c-0.8,0-1.7,0-2.5,0c-0.5,0-0.8-0.4-0.7-0.9
		c0.2-0.8,0.5-1.6,0.7-2.4c0.3-1,0.6-2,0.9-3v-3.6c0,0,0,0,0,0c-0.4,0-0.9,0.4-1,0.8c-0.4,1.4-0.8,2.7-1.2,4.1
		c-0.3,1.1-0.6,2.2-0.9,3.3c-0.3,0.9-0.5,1.7-0.8,2.6c-0.2,0.5-0.2,1-0.3,1.4c0,1.6,0,3.2,0,4.9c0,0.8,0.3,1.1,1.1,1.1
		c5.4,0,10.7,0,16.1,0c5.4,0,10.7,0,16.1,0c0.7,0,1.2-0.4,1.2-1.2C78.7,76.1,78.7,74.8,78.7,73.4z"/>
	<path class="st8" d="M50.4,66.6c0.3,1.1,0.9,1.7,1.9,2.1c0.1,0,0.2,0.1,0.4,0.1c0.1,0,0.2,0,0.2,0c0.8-0.1,1.4-0.5,2-1
		c1-0.7,1.7-1.7,2.4-2.7c0.1-0.1,0.1-0.2,0.2-0.2c0,0,0.1,0,0.1,0c0.1,0,0.1,0,0.2,0c0,0,0,0,0,0c1.2,0,2.3,0,3.5,0
		c1.1,0,2.2,0,3.3,0c0,0,0,0,0.1,0c0.1,0,0.1,0,0.2,0c0.1,0,0.1,0,0.2,0c0.1,0,0.2,0,0.2,0.1c0,0,0.1,0,0.1,0.1
		c0.1,0,0.1,0.1,0.2,0.2c0,0,0.1,0,0.1,0.1c0.1,0.1,0.2,0.2,0.3,0.4c0.8,1.1,1.7,2.1,2.9,2.8c0.3,0.2,0.7,0.4,1.1,0.4
		c0.1,0,0.2,0,0.3,0c0.1,0,0.1,0,0.2,0c0.1,0,0.2-0.1,0.3-0.1c0.1,0,0.1,0,0.2-0.1c0.1-0.1,0.2-0.1,0.3-0.2c0,0,0.1-0.1,0.1-0.1
		c0.1-0.1,0.3-0.2,0.4-0.3c0.6-0.6,0.8-1.5,0.9-2.3c0.1-0.9,0-1.8,0-2.7c0-1.2-0.1-2.3-0.4-3.4c-0.5-1.8-1.4-3.4-2.8-4.7
		c-0.2-0.2-0.4-0.3-0.6-0.5c-0.1,0-0.1-0.1-0.2-0.1c-0.2-0.1-0.4-0.2-0.6-0.3c0,0,0,0-0.1,0c-0.2-0.1-0.4-0.2-0.7-0.2
		c-0.1,0-0.1,0-0.2,0c-0.2,0-0.4-0.1-0.6-0.1c0,0-0.1,0-0.1,0c-0.1,0-0.3,0-0.4,0c-0.1,0-0.1,0-0.2,0c-0.2,0-0.4,0.1-0.6,0.1
		c-0.9,0.2-1.6,0.6-2.4,1.1c-0.1,0.1-0.2,0.1-0.3,0.1c-0.1,0-0.2,0-0.4,0.1c0,0,0,0,0,0c0,0,0,0-0.1,0c-0.2,0-0.3,0-0.5,0
		c-0.2,0-0.5,0-0.7,0c0,0,0,0,0,0c-0.1,0-0.3,0-0.4,0c-0.1,0-0.1,0-0.2,0c-0.2,0-0.4-0.1-0.6-0.2c-0.4-0.3-0.9-0.5-1.3-0.6
		c-0.3-0.1-0.6-0.2-0.9-0.2c-0.1,0-0.2,0-0.3,0c-0.2,0-0.4-0.1-0.6-0.1c-0.1,0-0.2,0-0.3,0c-0.3,0-0.6,0-0.9,0.1
		c-0.9,0.2-1.7,0.7-2.3,1.3c-1.2,1.2-2,2.7-2.5,4.3c-0.2,0.7-0.4,1.4-0.5,2.1c0,0.7,0,1.4,0,2.2C50.3,64.6,50.1,65.6,50.4,66.6z
		 M69.5,59.7c0,0.2,0,0.4-0.1,0.5c-0.2,0.3-0.5,0.6-0.9,0.6c0,0,0,0,0,0c-0.1,0-0.1,0-0.2-0.1c-0.1,0-0.1,0-0.2,0
		c-0.1,0-0.1-0.1-0.2-0.1c0,0-0.1-0.1-0.1-0.1c-0.1-0.1-0.1-0.2-0.2-0.2c0,0,0,0,0,0c0,0,0-0.1-0.1-0.1c-0.1-0.1-0.1-0.3-0.1-0.4
		c0-0.1,0-0.2,0.1-0.4c0,0,0,0,0,0c0,0,0.1-0.1,0.1-0.1c0-0.1,0.1-0.2,0.2-0.2c0,0,0.1-0.1,0.1-0.1c0.1,0,0.1-0.1,0.2-0.1
		c0.1,0,0.1,0,0.2,0c0.1,0,0.1,0,0.2,0c0,0,0,0,0,0c0,0,0,0,0,0C69.1,58.7,69.5,59,69.5,59.7z M66.5,56.8c0,0,0.1-0.1,0.1-0.1
		c0-0.1,0.1-0.2,0.1-0.2c0,0,0.1-0.1,0.2-0.1c0.1,0,0.1-0.1,0.2-0.1c0.1,0,0.1,0,0.2,0c0.1,0,0.1,0,0.2,0c0,0,0,0,0,0
		c0.6,0,1,0.4,1,1.1c0,0.2,0,0.4-0.1,0.5c-0.2,0.3-0.6,0.5-0.9,0.5c0,0,0,0,0,0c0,0,0,0,0,0c-0.1,0-0.2,0-0.3-0.1c0,0,0,0,0,0
		c-0.1-0.1-0.2-0.1-0.3-0.2c0,0,0,0,0,0c-0.1-0.1-0.1-0.2-0.2-0.2c0,0,0-0.1,0-0.1c0,0,0,0,0,0c-0.1-0.1-0.1-0.3-0.1-0.4
		C66.4,57.1,66.4,57,66.5,56.8z M66.2,59.7C66.2,59.7,66.2,59.7,66.2,59.7c0.1,0,0.2,0,0.3,0.1c0,0,0.1,0,0.1,0
		c0.1,0,0.2,0.1,0.3,0.2c0,0,0,0,0,0c0.1,0.1,0.1,0.2,0.2,0.3c0,0,0,0,0,0c0,0.1,0.1,0.3,0.1,0.5c0,0.2-0.1,0.3-0.1,0.4
		c-0.2,0.3-0.5,0.5-0.9,0.6c0,0,0,0,0,0c0,0,0,0,0,0c-0.1,0-0.2,0-0.3-0.1c0,0,0,0,0,0c-0.1-0.1-0.2-0.1-0.3-0.2c0,0,0,0,0,0
		c-0.1-0.1-0.1-0.1-0.2-0.2c0,0,0-0.1-0.1-0.1c0,0,0,0,0,0c-0.1-0.1-0.1-0.3-0.1-0.4c0-0.2,0.1-0.4,0.1-0.5c0.1-0.2,0.3-0.4,0.6-0.5
		C66,59.8,66.1,59.7,66.2,59.7z M64.1,57.9C64.1,57.9,64.1,57.9,64.1,57.9c0.1-0.1,0.1-0.3,0.2-0.4c0,0,0,0,0,0
		c0.1-0.1,0.2-0.2,0.3-0.3c0,0,0,0,0,0c0.1-0.1,0.3-0.1,0.4-0.1c0,0,0,0,0,0c0,0,0,0,0,0c0.6,0,1,0.4,1,1.1c0,0.1,0,0.2,0,0.3
		c0,0.1-0.1,0.2-0.1,0.2c0,0.1-0.1,0.2-0.2,0.3c0,0-0.1,0.1-0.2,0.1c-0.1,0-0.1,0.1-0.2,0.1c-0.1,0-0.1,0-0.2,0c-0.1,0-0.1,0-0.2,0
		c0,0,0,0,0,0c-0.4,0-0.7-0.3-0.9-0.6c-0.1-0.1-0.1-0.3-0.2-0.4C64,58.2,64,58,64.1,57.9z M54.7,58.6c0.2,0,0.3,0,0.5,0
		c0.2,0,0.3,0,0.5,0c0.1,0,0.1,0,0.1,0c0,0,0,0,0.1,0c0,0,0-0.1,0-0.2c0-0.3,0-0.6,0-0.9c0-0.4,0.3-0.7,0.6-0.7c0,0,0.1,0,0.1,0
		c0,0,0.1,0,0.1,0c0,0,0.1,0,0.1,0c0.1,0,0.1,0,0.1,0.1c0,0,0.1,0,0.1,0.1c0,0,0.1,0.1,0.1,0.1c0,0,0,0,0.1,0.1
		c0,0.1,0.1,0.2,0.1,0.3c0,0.3,0,0.6,0,0.9c0,0.1,0,0.2,0,0.2c0,0,0,0,0.1,0c0,0,0.1,0,0.1,0c0.1,0,0.3,0,0.4,0c0.2,0,0.3,0,0.5,0
		c0.5,0,0.7,0.3,0.7,0.7c0,0.2-0.1,0.4-0.2,0.5c-0.1,0.1-0.3,0.2-0.5,0.2c-0.1,0-0.2,0-0.3,0c-0.1,0-0.3,0-0.4,0c0,0,0,0,0,0
		c-0.4,0-0.4,0-0.4,0.4c0,0.3,0,0.5,0,0.8c0,0.3-0.2,0.6-0.6,0.7c0,0-0.1,0-0.1,0c0,0,0,0,0,0c-0.1,0-0.2,0-0.3-0.1c0,0,0,0,0,0
		c-0.1-0.1-0.2-0.2-0.2-0.3c-0.1-0.2,0-0.5-0.1-0.7c0-0.8,0-0.8-0.8-0.8c-0.1,0-0.2,0-0.3,0c-0.1,0-0.1,0-0.2,0
		c-0.2,0-0.3-0.1-0.5-0.2c-0.1-0.1-0.2-0.3-0.2-0.5C54,58.9,54.3,58.6,54.7,58.6z"/>
	<path class="st8" d="M62.5,52.6c0.2,0,0.4,0.1,0.5,0.1c0.3,0.1,0.7,0.1,1,0.2c0.5,0.1,1,0.1,1.5,0.2c0.1,0,0.2,0,0.3,0
		c0.1,0,0.1,0,0.2,0c0,0,0.1,0,0.1,0c0,0,0.1,0,0.1,0c0,0,0,0,0.1,0c0,0,0-0.1,0.1-0.1c0,0,0,0,0,0c0-0.1,0-0.1,0.1-0.2
		c0-0.2,0.1-0.4,0.1-0.6c0.1-0.9,0.3-1.7,0.3-2.6c0-0.5,0-0.7-0.6-0.7c-0.3,0-0.6-0.1-0.9-0.1c-0.8-0.1-1.5-0.2-2.1-0.3
		c-0.6,0-0.7,0.1-0.8,0.6c-0.1,1-0.2,2.1-0.4,3.1C62,52.3,62.2,52.6,62.5,52.6z M63.1,51.5c0.1-0.7,0.2-1.4,0.3-2.1
		c0-0.1,0-0.1,0.1-0.2c0,0,0,0,0,0c0,0,0,0,0.1,0c0,0,0,0,0,0c0.7,0.1,1.5,0.2,2.2,0.3c0.1,0,0.1,0.1,0.1,0.2c0,0.3-0.1,0.5-0.1,0.8
		c-0.1,0.4-0.1,0.9-0.2,1.3c0,0.1,0,0.1-0.1,0.1c0,0,0,0,0,0c0,0-0.1,0-0.1,0c0,0,0,0,0,0c0,0-0.1,0-0.1,0c-0.7-0.1-1.3-0.2-2-0.3
		c-0.1,0-0.1,0-0.2-0.1C63.1,51.7,63,51.6,63.1,51.5z"/>
	<path class="st8" d="M57.8,52.9c0.1,0,0.3,0.1,0.5,0.1c0.1,0,0.2,0,0.3,0c0.1,0,0.2,0,0.2,0c0.1,0,0.2,0,0.2-0.1c0,0,0,0,0,0
		c0.1,0,0.1,0,0.2-0.1c0.1,0,0.1-0.1,0.2-0.1c0.1,0,0.1-0.1,0.2-0.1c0.1,0,0.1-0.1,0.2-0.2c0,0,0.1-0.1,0.1-0.1
		c0.1-0.1,0.1-0.1,0.2-0.2c0,0,0.1-0.1,0.1-0.1c0-0.1,0.1-0.2,0.1-0.2c0-0.1,0.1-0.1,0.1-0.2c0-0.1,0.1-0.2,0.1-0.3c0,0,0-0.1,0-0.1
		c0-0.2,0-0.3,0-0.5c0-0.2,0-0.3,0-0.5c0-0.1,0-0.1,0-0.1c0-0.1,0-0.2-0.1-0.3c0-0.1-0.1-0.1-0.1-0.2c0-0.1-0.1-0.2-0.1-0.2
		c0-0.1-0.1-0.1-0.1-0.1c0-0.1-0.1-0.1-0.2-0.2c0,0-0.1-0.1-0.1-0.1c-0.1-0.1-0.1-0.1-0.2-0.1c-0.1,0-0.1-0.1-0.2-0.1
		c-0.1,0-0.1-0.1-0.2-0.1c-0.1,0-0.1,0-0.2-0.1c-0.1,0-0.2-0.1-0.2-0.1c-0.1,0-0.1,0-0.2,0c-0.1,0-0.2,0-0.3,0c-0.1,0-0.2,0-0.3,0
		c-0.1,0-0.1,0-0.2,0c-0.1,0-0.2,0-0.2,0.1c-0.1,0-0.1,0-0.2,0.1c-0.1,0-0.1,0.1-0.2,0.1c-0.1,0-0.1,0.1-0.2,0.1
		c-0.1,0-0.1,0.1-0.2,0.2c0,0-0.1,0.1-0.1,0.1c-0.1,0.1-0.1,0.1-0.2,0.2c0,0-0.1,0.1-0.1,0.1c0,0.1-0.1,0.2-0.1,0.2
		c0,0.1-0.1,0.1-0.1,0.1c0,0.1-0.1,0.2-0.1,0.3c0,0,0,0.1,0,0.1c0,0.1,0,0.3,0,0.4C56.1,51.7,56.8,52.6,57.8,52.9z M57.1,50.4
		C57.1,50.4,57.1,50.4,57.1,50.4c0-0.1,0.1-0.2,0.1-0.2c0,0,0-0.1,0.1-0.1c0,0,0-0.1,0.1-0.1c0,0,0-0.1,0.1-0.1c0,0,0.1-0.1,0.1-0.1
		c0,0,0.1-0.1,0.1-0.1c0,0,0.1-0.1,0.1-0.1c0,0,0.1,0,0.1-0.1c0,0,0.1-0.1,0.1-0.1c0,0,0.1,0,0.1,0c0,0,0.1,0,0.1,0c0,0,0.1,0,0.1,0
		c0,0,0.1,0,0.1,0c0,0,0,0,0,0c0.8,0,1.4,0.7,1.3,1.3c0,0.2,0,0.3-0.1,0.5c-0.2,0.5-0.7,0.9-1.3,0.9c0,0,0,0,0,0c0,0-0.1,0-0.1,0
		c0,0-0.1,0-0.1,0c0,0-0.1,0-0.1,0c0,0-0.1,0-0.1,0c0,0-0.1,0-0.1-0.1c0,0-0.1,0-0.1-0.1c0,0-0.1-0.1-0.1-0.1c0,0-0.1,0-0.1-0.1
		c0,0-0.1-0.1-0.1-0.1c0,0,0-0.1-0.1-0.1c0,0-0.1-0.1-0.1-0.2c0,0,0-0.1,0-0.1c0,0,0,0,0,0c0-0.1,0-0.1-0.1-0.2c0,0,0-0.1,0-0.1
		c0-0.1,0-0.2,0-0.3C57,50.6,57.1,50.5,57.1,50.4z"/>
	<path class="st8" d="M62.6,46.8c0,0,0,0.1,0.1,0.1c0,0,0,0,0.1,0c0,0,0.1,0,0.1,0.1c0,0,0,0,0.1,0c0.1,0,0.1,0,0.2,0
		c0.9-0.3,1.9-0.6,2.8-0.9c0.5-0.2,0.6-0.6,0.2-0.9c-0.7-0.6-1.4-1.2-2.1-1.9c-0.1-0.1-0.2-0.1-0.3-0.2c0,0,0,0-0.1,0
		c-0.1,0-0.1,0-0.2,0c0,0,0,0,0,0c-0.1,0-0.1,0.1-0.2,0.1c0,0,0,0,0,0c0,0.1-0.1,0.2-0.1,0.3c-0.1,0.5-0.2,1.1-0.4,1.6
		c-0.1,0.5-0.2,0.9-0.3,1.3C62.6,46.5,62.6,46.6,62.6,46.8C62.6,46.7,62.6,46.7,62.6,46.8z M63.9,44.6c0-0.1,0-0.1,0-0.1
		c0,0,0,0,0,0c0,0,0,0,0,0c0,0,0,0,0,0c0,0,0,0,0,0c0,0,0.1,0,0.1,0.1c0.3,0.2,0.5,0.5,0.8,0.7c0.1,0.1,0.1,0.1,0.1,0.1
		s-0.1,0.1-0.1,0.1c-0.3,0.1-0.7,0.2-1,0.3c0,0-0.1,0-0.1,0c0,0,0,0,0,0c0,0,0,0,0,0c0,0,0,0,0,0c0,0,0-0.1,0-0.2
		C63.7,45.3,63.8,45,63.9,44.6z"/>
	<path class="st8" d="M57,45.1c0.3,0.1,0.7,0.2,1,0.2c0.3,0,0.2,0.2,0.2,0.3c-0.1,0.3-0.1,0.6-0.2,0.9c-0.1,0.3,0.1,0.6,0.4,0.7
		c0.1,0,0.1,0,0.2,0c0,0,0,0,0.1,0c0,0,0.1,0,0.1,0c0,0,0,0,0.1,0c0,0,0.1-0.1,0.1-0.1c0,0,0,0,0-0.1c0-0.1,0.1-0.1,0.1-0.2
		c0.1-0.3,0.2-0.6,0.2-1c0-0.1,0-0.1,0-0.1c0,0,0,0,0,0c0,0,0,0,0.1,0c0,0,0,0,0,0c0,0,0,0,0,0c0,0,0.1,0,0.1,0
		c0.3,0.1,0.7,0.2,1,0.2c0,0,0.1,0,0.1,0c0.1,0,0.2,0,0.3-0.1c0,0,0,0,0,0c0.1-0.1,0.1-0.1,0.1-0.2c0-0.3-0.1-0.5-0.4-0.6
		c-0.3-0.1-0.6-0.1-0.9-0.2c-0.2,0-0.4-0.1-0.3-0.4c0.1-0.3,0.2-0.7,0.2-1c0-0.4-0.1-0.5-0.4-0.6c-0.1,0-0.1,0-0.1,0
		c0,0-0.1,0-0.1,0c0,0-0.1,0-0.1,0c0,0,0,0-0.1,0c0,0-0.1,0.1-0.1,0.1c0,0,0,0,0,0c0,0.1-0.1,0.1-0.1,0.2c-0.1,0.3-0.2,0.7-0.2,1
		c0,0.1,0,0.1,0,0.1c0,0,0,0,0,0c0,0,0,0-0.1,0c0,0,0,0,0,0c0,0,0,0,0,0c0,0-0.1,0-0.1,0c-0.3-0.1-0.7-0.1-1-0.2c-0.1,0-0.1,0-0.2,0
		c-0.1,0-0.2,0-0.3,0.1c0,0,0,0,0,0c-0.1,0.1-0.1,0.1-0.2,0.2C56.5,44.8,56.7,45.1,57,45.1z"/>
</g>
</svg>
